# xmcd CD database file
#
# Track frame offsets:
#	150
#	36738
#	61953
#	99879
#	141541
#	182475
#	202101
#	246248
#	295551
#	327192
#
# Disc length: 4548 seconds
#
# Revision: 0
# Processed by: cddbd v1.5.2PL0 Copyright (c) Steve Scherf et al.
# Submitted via: CDex 1.70beta2
#
DISCID=9711c20a
DTITLE=Jason Ricci and New Blood - Down That Road
DYEAR=2010
DGENRE=Blues
TTITLE0=Baked Potato
TTITLE1=My Head Is A Bad Neighborhood
TTITLE2=Akos
TTITLE3=Snowflakes and Horses
TTITLE4=The Eternal Is
TTITLE5=The One Least In Love
TTITLE6=Wake County Stomp
TTITLE7=The way I Hurt Myself
TTITLE8=Too Many drivers
TTITLE9=Harmonica Caprice no 1 in C Minor
EXTD=YEAR: 2010
EXTT0=
EXTT1=
EXTT2=
EXTT3=
EXTT4=
EXTT5=
EXTT6=
EXTT7=
EXTT8=
EXTT9=
PLAYORDER=
